<svg width="137" height="137" viewBox="0 0 137 137" fill="none" xmlns="http://www.w3.org/2000/svg">
<path d="M25.2679 116.454L15.6479 8.5625H121.352L111.719 116.437L68.4358 128.438L25.2679 116.454Z" fill="#E44F26"/>
<path d="M68.5 119.267L103.478 109.57L111.706 17.3862H68.5V119.267Z" fill="#F1662A"/>
<path d="M68.5 57.3987H50.9897L49.7824 43.8486H68.5V30.6152H35.3203L35.6371 34.1687L38.8866 70.6321H68.5V57.3987ZM68.5 91.7643L68.4401 91.7815L53.704 87.8042L52.7621 77.2509H39.4774L41.3312 98.0235L68.4401 105.55L68.5 105.533V91.7643Z" fill="#EBEBEB"/>
<path d="M68.4529 57.3987V70.6321H84.7473L83.2146 87.7956L68.4529 91.7772V105.546L95.5832 98.0235L95.7801 95.7887L98.8883 60.9522L99.2137 57.3987H95.6474H68.4529ZM68.4529 30.6152V43.8486H100.417L100.682 40.8774L101.286 34.1687L101.603 30.6152H68.4529Z" fill="white"/>
</svg>
