<svg width="111" height="112" viewBox="0 0 111 112" fill="none" xmlns="http://www.w3.org/2000/svg">
<g clip-path="url(#clip0_544_823)">
<path d="M86.7779 86.3C86.7779 92.3039 72.8696 97.1415 55.7219 97.1415C38.5742 97.1415 24.666 92.2607 24.666 86.3C24.666 80.2961 38.5742 75.4585 55.7219 75.4585C72.8696 75.4585 86.7779 80.2961 86.7779 86.3Z" fill="#9EDCF2"/>
<mask id="mask0_544_823" style="mask-type:luminance" maskUnits="userSpaceOnUse" x="38" y="82" width="35" height="30">
<path d="M42.3752 105.737C43.0663 108.977 44.7508 110.877 46.4354 112H64.1878C66.3475 110.531 68.5503 107.767 68.5503 102.584V89.194C68.5503 89.194 68.8095 85.8682 71.8762 84.7883C71.8762 84.7883 73.6471 83.5357 71.7466 82.8446C71.7466 82.8446 63.3239 82.1535 63.3239 89.0645V99.2581C63.3239 99.2581 63.6695 103.016 61.6826 104.571V91.9584C61.6826 91.9584 61.8122 87.9414 63.8854 86.4297C63.8854 86.4297 65.2676 83.9677 62.2441 84.6156C62.2441 84.6156 56.4562 85.4362 56.1971 92.2176L56.0675 105.176H54.6853L54.5557 92.2176C54.2965 85.4794 48.5087 84.6156 48.5087 84.6156C45.4851 83.9245 46.8673 86.4297 46.8673 86.4297C48.9406 87.9414 49.0702 91.9584 49.0702 91.9584V104.7C47.0833 103.275 47.4288 99.2581 47.4288 99.2581V89.0645C47.4288 82.1535 39.0061 82.8446 39.0061 82.8446C37.0625 83.5357 38.8766 84.7883 38.8766 84.7883C41.9001 85.9114 42.2024 89.194 42.2024 89.194V98.567L42.3752 105.737Z" fill="white"/>
</mask>
<g mask="url(#mask0_544_823)">
<path d="M86.7779 86.3C86.7779 92.3039 72.8696 97.1415 55.7219 97.1415C38.5742 97.1415 24.666 92.2607 24.666 86.3C24.666 80.2961 38.5742 75.4585 55.7219 75.4585C72.8696 75.4585 86.7779 80.2961 86.7779 86.3Z" fill="#7DBCE7"/>
</g>
<path d="M20.2603 54.3804L19.3532 57.4903C19.3532 57.4903 19.1373 58.6133 20.1739 58.8293C21.2969 58.7861 21.2106 57.7494 21.1242 57.4471L20.2603 54.3804Z" fill="#9EDCF2"/>
<path d="M110.491 41.2927L110.577 40.904C101.464 39.0899 92.1338 39.0467 86.4755 39.3058C87.3826 35.9799 87.6849 32.0926 87.6849 27.8164C87.6849 21.6398 85.3525 16.7158 81.6379 13.0012C82.2858 10.8847 83.1496 6.17664 80.774 0.17278C80.774 0.17278 76.5411 -1.16621 66.909 5.26958C63.1512 4.31933 59.1342 3.8442 55.1172 3.8442C50.7115 3.8442 46.2626 4.40572 42.0729 5.52874C32.1384 -1.2526 27.7759 0.129587 27.7759 0.129587C24.9252 7.25647 26.6961 12.5692 27.2144 13.865C23.8453 17.4933 21.8153 22.1149 21.8153 27.7732C21.8153 32.0494 22.2904 35.8936 23.4998 39.2194C17.7983 39.0035 8.8141 39.0899 0.00268555 40.8608L0.089072 41.2495C8.90049 39.4786 17.9711 39.4354 23.6294 39.6514C23.8885 40.3425 24.1909 41.0336 24.4932 41.6815C18.8781 41.8542 9.33242 42.5885 0.175458 45.1801L0.305038 45.5688C9.54839 42.9773 19.1805 42.2862 24.7524 42.1134C28.1215 48.3332 34.6868 52.3934 46.4354 53.646C44.7509 54.769 43.0663 56.6695 42.3752 59.909C40.086 60.9888 32.9159 63.6668 28.5966 56.2376C28.5966 56.2376 26.1778 51.8319 21.5561 51.4863C21.5561 51.4863 17.064 51.3999 21.2537 54.2939C21.2537 54.2939 24.2341 55.7193 26.3074 61.032C26.3074 61.032 29.0285 70.1026 42.0297 67.1655V76.452C42.0297 76.452 41.7705 79.7779 38.7038 80.8577C38.7038 80.8577 36.8897 82.1103 38.8334 82.8014C38.8334 82.8014 47.2561 83.4925 47.2561 76.5816V66.388C47.2561 66.388 46.9105 62.3278 48.8974 60.9456V77.7046C48.8974 77.7046 48.7678 81.7216 46.6945 83.2333C46.6945 83.2333 45.3124 85.6953 48.3359 85.0474C48.3359 85.0474 54.1238 84.2268 54.3829 77.4454L54.5125 60.4705H55.8947L56.0243 77.4454C56.2834 84.1836 62.0713 85.0474 62.0713 85.0474C65.0949 85.7385 63.7127 83.2333 63.7127 83.2333C61.6394 81.7216 61.5098 77.7046 61.5098 77.7046V61.0752C63.4967 62.6302 63.1512 66.388 63.1512 66.388V76.5816C63.1512 83.4925 71.5738 82.8014 71.5738 82.8014C73.5175 82.1103 71.7034 80.8577 71.7034 80.8577C68.6799 79.7347 68.3775 76.452 68.3775 76.452V63.0621C68.3775 57.8357 66.1747 55.0714 64.015 53.646C76.5411 52.3934 82.5449 48.3764 85.3093 42.0702C90.7948 42.1998 100.686 42.8909 110.102 45.5688L110.232 45.1801C100.859 42.5453 91.054 41.8542 85.482 41.6815C85.7412 41.0336 85.9572 40.3857 86.1731 39.6946C91.961 39.4786 101.334 39.4786 110.491 41.2927Z" fill="#010101"/>
<path d="M75.418 27.5142C78.096 29.9762 79.6942 32.9133 79.6942 36.0665C79.6942 50.9249 68.6367 51.3137 54.9876 51.3137C41.3386 51.3137 30.2811 49.2404 30.2811 36.0665C30.2811 32.9133 31.8361 29.9762 34.5141 27.5574C38.963 23.4972 46.4786 25.6569 54.9876 25.6569C63.4967 25.6569 70.9691 23.454 75.418 27.5142Z" fill="#F5CCB3"/>
<path d="M46.7809 36.8437C46.7809 40.9471 44.4917 44.2298 41.6409 44.2298C38.7902 44.2298 36.5009 40.9039 36.5009 36.8437C36.5009 32.7404 38.7902 29.4577 41.6409 29.4577C44.4917 29.4145 46.7809 32.7404 46.7809 36.8437Z" fill="white"/>
<path d="M45.1396 36.9301C45.1396 39.6513 43.5846 41.8542 41.7273 41.8542C39.8268 41.8542 38.3151 39.6513 38.3151 36.9301C38.3151 34.209 39.87 32.0061 41.7273 32.0061C43.5846 32.0061 45.1396 34.209 45.1396 36.9301Z" fill="#AF5C51"/>
<path d="M74.3814 36.8437C74.3814 40.9471 72.0922 44.2298 69.2414 44.2298C66.3907 44.2298 64.1014 40.9039 64.1014 36.8437C64.1014 32.7404 66.3907 29.4577 69.2414 29.4577C72.049 29.4145 74.3814 32.7404 74.3814 36.8437Z" fill="white"/>
<path d="M72.6969 36.9301C72.6969 39.6513 71.1419 41.8542 69.2846 41.8542C67.3841 41.8542 65.8723 39.6513 65.8723 36.9301C65.8723 34.209 67.4273 32.0061 69.2846 32.0061C71.1851 32.0061 72.6969 34.209 72.6969 36.9301ZM56.3698 43.4091C56.3698 44.1002 55.8083 44.7049 55.074 44.7049C54.383 44.7049 53.7782 44.1434 53.7782 43.4091C53.7782 42.6748 54.3398 42.1133 55.074 42.1133C55.7651 42.1133 56.3698 42.6748 56.3698 43.4091ZM52.0937 46.6486C52.0073 46.4326 52.1369 46.2167 52.3529 46.1303C52.5688 46.0439 52.7848 46.1735 52.8712 46.3894C53.2167 47.3397 54.0806 47.9444 55.074 47.9444C56.0675 47.9444 56.9314 47.2965 57.2769 46.3894C57.3633 46.1735 57.5792 46.0439 57.7952 46.1303C58.0112 46.2167 58.1408 46.4326 58.0544 46.6486C57.6224 47.9012 56.413 48.7651 55.074 48.7651C53.7351 48.7651 52.5256 47.9012 52.0937 46.6486Z" fill="#AF5C51"/>
<path d="M23.543 52.5229C23.543 52.8685 23.1543 53.1276 22.6359 53.1276C22.1608 53.1276 21.7289 52.8685 21.7289 52.5229C21.7289 52.1774 22.1176 51.9182 22.6359 51.9182C23.1543 51.9182 23.543 52.1774 23.543 52.5229ZM26.0482 53.9051C26.0482 54.2506 25.6595 54.5098 25.1411 54.5098C24.666 54.5098 24.2341 54.2506 24.2341 53.9051C24.2341 53.5596 24.6228 53.3004 25.1411 53.3004C25.6595 53.3004 26.0482 53.5596 26.0482 53.9051ZM27.56 55.7192C27.56 56.0648 27.1712 56.3239 26.6529 56.3239C26.1778 56.3239 25.7459 56.0648 25.7459 55.7192C25.7459 55.3737 26.1346 55.1145 26.6529 55.1145C27.1712 55.0713 27.56 55.3737 27.56 55.7192ZM28.9421 57.7925C28.9421 58.138 28.5534 58.3972 28.0351 58.3972C27.56 58.3972 27.128 58.138 27.128 57.7925C27.128 57.4469 27.5168 57.1878 28.0351 57.1878C28.5534 57.1446 28.9421 57.4469 28.9421 57.7925ZM30.4539 59.693C30.4539 60.0385 30.0652 60.2977 29.5469 60.2977C29.0717 60.2977 28.6398 60.0385 28.6398 59.693C28.6398 59.3474 29.0285 59.0883 29.5469 59.0883C30.0652 59.0883 30.4539 59.3474 30.4539 59.693ZM32.5272 61.3775C32.5272 61.7231 32.1384 61.9822 31.6201 61.9822C31.145 61.9822 30.7131 61.7231 30.7131 61.3775C30.7131 61.032 31.1018 60.7728 31.6201 60.7728C32.1384 60.7296 32.5272 61.032 32.5272 61.3775ZM35.4211 62.4574C35.4211 62.8029 35.0324 63.0621 34.5141 63.0621C34.0389 63.0621 33.607 62.8029 33.607 62.4574C33.607 62.1118 33.9958 61.8527 34.5141 61.8527C35.0324 61.8527 35.4211 62.1118 35.4211 62.4574ZM38.3151 62.4574C38.3151 62.8029 37.9263 63.0621 37.408 63.0621C36.9329 63.0621 36.501 62.8029 36.501 62.4574C36.501 62.1118 36.8897 61.8527 37.408 61.8527C37.9263 61.8527 38.3151 62.1118 38.3151 62.4574ZM41.2522 61.9822C41.2522 62.3278 40.8635 62.5869 40.3452 62.5869C39.87 62.5869 39.4381 62.3278 39.4381 61.9822C39.4381 61.6367 39.8268 61.3775 40.3452 61.3775C40.8203 61.3775 41.2522 61.6367 41.2522 61.9822Z" fill="#C4E5D9"/>
</g>
<defs>
<clipPath id="clip0_544_823">
<rect width="110.58" height="112" fill="white"/>
</clipPath>
</defs>
</svg>
