<svg width="112" height="112" viewBox="0 0 112 112" fill="none" xmlns="http://www.w3.org/2000/svg">
<path d="M109.145 51.3077L60.9184 3.08294C58.1429 0.305688 53.6384 0.305688 50.8585 3.08294L40.845 13.0982L53.5483 25.8014C56.5014 24.8048 59.8859 25.4733 62.2388 27.8262C64.6039 30.1939 65.2671 33.6073 64.246 36.5701L76.489 48.8139C79.4509 47.7928 82.8695 48.4526 85.2338 50.8221C88.5413 54.1269 88.5413 59.4846 85.2338 62.7912C84.4478 63.5776 83.5145 64.2014 82.4874 64.627C81.4602 65.0526 80.3593 65.2717 79.2475 65.2717C78.1356 65.2717 77.0347 65.0526 76.0075 64.627C74.9804 64.2014 74.0471 63.5776 73.2611 62.7912C72.0805 61.6094 71.2757 60.1048 70.948 58.4668C70.6203 56.8288 70.7842 55.1304 71.4193 53.5853L60.0023 42.1683L60.0005 72.2167C60.8289 72.6245 61.5852 73.1648 62.2396 73.8162C65.5454 77.1211 65.5454 82.4769 62.2396 85.7888C58.933 89.0937 53.5736 89.0937 50.2705 85.7888C46.9648 82.4778 46.9648 77.1219 50.2705 73.8162C51.0633 73.0238 52.0051 72.3963 53.0416 71.9699V41.6433C52.0039 41.2187 51.0617 40.5907 50.2705 39.7962C47.7663 37.2937 47.1634 33.6187 48.4479 30.5422L35.924 18.0183L2.85601 51.0846C1.52191 52.4191 0.772461 54.2288 0.772461 56.1158C0.772461 58.0028 1.52191 59.8125 2.85601 61.1471L51.0834 109.372C53.8606 112.149 58.3634 112.149 61.145 109.372L109.146 61.3711C110.48 60.0362 111.229 58.2263 111.229 56.3392C111.228 54.4521 110.479 52.6423 109.145 51.3077Z" fill="#F34F29"/>
</svg>
