<svg width="112" height="112" viewBox="0 0 112 112" fill="none" xmlns="http://www.w3.org/2000/svg">
<path d="M109.17 17.0799L58.9085 106.958C57.8699 108.814 55.2037 108.825 54.1511 106.979L2.89187 17.0904C1.743 15.0762 3.46237 12.6393 5.74525 13.0462L56.0612 22.0385C56.3824 22.097 56.7114 22.097 57.0325 22.0385L106.295 13.0602C108.568 12.6463 110.298 15.063 109.17 17.0799Z" fill="url(#paint0_linear_593_3422)"/>
<path d="M80.0275 1.25118L42.8348 8.53818C42.5379 8.59619 42.2687 8.75115 42.0695 8.97873C41.8702 9.20632 41.7522 9.49363 41.734 9.79555L39.4441 48.4426C39.4318 48.6545 39.469 48.8664 39.5528 49.0615C39.6366 49.2565 39.7646 49.4294 39.9267 49.5664C40.0889 49.7035 40.2807 49.8009 40.487 49.8509C40.6933 49.901 40.9085 49.9023 41.1154 49.8548L51.4719 47.4617C51.6949 47.4104 51.9273 47.416 52.1476 47.4779C52.3679 47.5398 52.5692 47.656 52.7329 47.8159C52.8966 47.9758 53.0176 48.1742 53.0847 48.393C53.1518 48.6118 53.1628 48.844 53.1169 49.0682L50.0395 64.1348C49.9925 64.3667 50.0064 64.6068 50.0801 64.8317C50.1537 65.0566 50.2844 65.2585 50.4595 65.4177C50.6345 65.5769 50.8479 65.6879 51.0788 65.7399C51.3096 65.7918 51.55 65.783 51.7764 65.7142L58.1709 63.7691C59.1623 63.4681 60.116 64.3396 59.9078 65.3546L55.0165 89.0207C54.712 90.5012 56.6808 91.3079 57.5015 90.0392L58.0484 89.1922L88.3584 28.7034C88.8676 27.6884 87.99 26.5334 86.8796 26.7487L76.2178 28.8067C75.9883 28.8512 75.7513 28.8361 75.5294 28.7627C75.3075 28.6892 75.1083 28.56 74.9507 28.3873C74.7932 28.2147 74.6827 28.0044 74.6298 27.7768C74.577 27.5491 74.5835 27.3117 74.6489 27.0873L81.6051 2.97055C81.6705 2.74537 81.6768 2.50713 81.6234 2.27881C81.5699 2.05049 81.4586 1.83978 81.3001 1.667C81.1415 1.49422 80.9412 1.3652 80.7183 1.29237C80.4954 1.21953 80.2575 1.20535 80.0275 1.25118Z" fill="url(#paint1_linear_593_3422)"/>
<defs>
<linearGradient id="paint0_linear_593_3422" x1="1.63905" y1="9.83456" x2="64.1961" y2="94.792" gradientUnits="userSpaceOnUse">
<stop stop-color="#41D1FF"/>
<stop offset="1" stop-color="#BD34FE"/>
</linearGradient>
<linearGradient id="paint1_linear_593_3422" x1="53.1738" y1="3.22866" x2="64.4901" y2="80.8571" gradientUnits="userSpaceOnUse">
<stop stop-color="#FFEA83"/>
<stop offset="0.083" stop-color="#FFDD35"/>
<stop offset="1" stop-color="#FFA800"/>
</linearGradient>
</defs>
</svg>
