<svg width="75" height="112" viewBox="0 0 75 112" fill="none" xmlns="http://www.w3.org/2000/svg">
<g clip-path="url(#clip0_593_3438)">
<path d="M18.6683 112C28.9723 112 37.335 103.637 37.335 93.3334V74.6667H18.6683C8.36433 74.6667 0.00166321 83.0294 0.00166321 93.3334C0.00166321 103.637 8.36433 112 18.6683 112Z" fill="#0ACF83"/>
<path d="M0.00166321 55.9999C0.00166321 45.6959 8.36433 37.3333 18.6683 37.3333H37.335V74.6666H18.6683C8.36433 74.6666 0.00166321 66.3039 0.00166321 55.9999Z" fill="#A259FF"/>
<path d="M0.00166321 18.6667C0.00166321 8.36267 8.36433 0 18.6683 0H37.335V37.3333H18.6683C8.36433 37.3333 0.00166321 28.9707 0.00166321 18.6667Z" fill="#F24E1E"/>
<path d="M37.335 0H56.0017C66.3057 0 74.6683 8.36267 74.6683 18.6667C74.6683 28.9707 66.3057 37.3333 56.0017 37.3333H37.335V0Z" fill="#FF7262"/>
<path d="M74.6683 55.9999C74.6683 66.3039 66.3057 74.6666 56.0017 74.6666C45.6977 74.6666 37.335 66.3039 37.335 55.9999C37.335 45.6959 45.6977 37.3333 56.0017 37.3333C66.3057 37.3333 74.6683 45.6959 74.6683 55.9999Z" fill="#1ABCFE"/>
</g>
<defs>
<clipPath id="clip0_593_3438">
<rect width="74.67" height="112" fill="white"/>
</clipPath>
</defs>
</svg>
