<svg width="133" height="136" viewBox="0 0 133 136" fill="none" xmlns="http://www.w3.org/2000/svg">
<path d="M24.5301 115.604L15.1952 8.5H117.805L108.457 115.587L66.4376 127.5L24.5301 115.604Z" fill="#1572B6"/>
<path d="M66.5 118.397L100.457 108.77L108.445 17.2593H66.5V118.397Z" fill="#33A9DC"/>
<path d="M66.5 56.0616H83.4991L84.6711 42.6104H66.5V29.4736H98.7109L98.4034 32.9969L95.2488 69.1984H66.5V56.0616Z" fill="white"/>
<path d="M66.579 90.1764L66.5208 90.1934L52.215 86.2409L51.3006 75.7646H38.4037L40.2034 96.3899L66.5166 103.861L66.579 103.844V90.1764Z" fill="#EBEBEB"/>
<path d="M82.406 68.6418L80.8599 86.2326L66.5333 90.1851V103.853L92.8673 96.3901L93.0626 94.1716L95.2945 68.6418H82.406Z" fill="white"/>
<path d="M66.5457 29.4736V42.6104H35.5152L35.2575 39.6566L34.6715 32.9969L34.3639 29.4736H66.5457ZM66.5 56.0616V69.1984H52.3729L52.1152 66.2446L51.5334 59.5849L51.2258 56.0616H66.5Z" fill="#EBEBEB"/>
</svg>
