<svg width="112" height="100" viewBox="0 0 112 100" fill="none" xmlns="http://www.w3.org/2000/svg">
<g clip-path="url(#clip0_544_801)">
<path d="M92.0828 32.2948C90.891 31.8859 89.6891 31.5071 88.4782 31.1587C88.6816 30.3275 88.8688 29.5064 89.035 28.6997C91.7639 15.4531 89.9799 4.78133 83.8866 1.26768C78.0444 -2.10075 68.4899 1.4116 58.8404 9.80947C57.8894 10.6386 56.9595 11.4916 56.0516 12.3677C55.4439 11.7851 54.8253 11.2139 54.1964 10.6542C44.0832 1.67495 33.9465 -2.1095 27.8597 1.41422C22.0227 4.79314 20.2943 14.8254 22.7511 27.3795C22.9955 28.6229 23.2715 29.8598 23.5788 31.0891C22.1439 31.4968 20.7593 31.9308 19.4343 32.3928C7.57744 36.5267 0.00549316 43.005 0.00549316 49.7248C0.00549316 56.6651 8.13432 63.6263 20.4837 67.8474C21.4849 68.1882 22.4945 68.504 23.5114 68.7945C23.1811 70.1185 22.8879 71.4515 22.6321 72.7919C20.2899 85.1282 22.119 94.9233 27.9402 98.2808C33.9526 101.748 44.0439 98.1846 53.8696 89.5951C54.6664 88.8968 55.4456 88.1787 56.2065 87.4415C57.1897 88.3902 58.1992 89.3112 59.2337 90.2036C68.7519 98.3937 78.152 101.701 83.9675 98.3342C89.9743 94.8568 91.9266 84.3343 89.392 71.5321C89.1923 70.5291 88.9684 69.5311 88.7205 68.539C89.4292 68.329 90.1248 68.1129 90.8028 67.8881C103.641 63.6347 111.995 56.7578 111.995 49.7248C111.995 42.9805 104.178 36.4585 92.0828 32.2948ZM89.2984 63.3472C88.686 63.5498 88.0578 63.7453 87.4173 63.9356C86 59.4486 84.0874 54.6777 81.7466 49.748C83.9802 44.936 85.8193 40.2259 87.1968 35.7682C88.3426 36.0998 89.4541 36.4493 90.5259 36.8181C100.889 40.386 107.211 45.6604 107.211 49.7248C107.211 54.0539 100.384 59.6739 89.2984 63.3472ZM84.699 72.4612C85.8197 78.1219 85.9794 83.2402 85.237 87.2416C84.5704 90.8371 83.2291 93.2339 81.5703 94.1941C78.0413 96.237 70.4939 93.5817 62.3541 86.5771C61.3918 85.7474 60.4528 84.8911 59.5382 84.0092C62.694 80.5581 65.8476 76.5462 68.9256 72.0903C74.3395 71.6099 79.4543 70.8243 84.0927 69.7521C84.3161 70.6502 84.5183 71.5535 84.699 72.4612ZM38.185 93.8411C34.737 95.0585 31.9906 95.0935 30.3305 94.1364C26.798 92.0991 25.3295 84.2341 27.3326 73.6844C27.5707 72.4377 27.8433 71.1979 28.1502 69.9664C32.7374 70.9813 37.8149 71.711 43.2416 72.1511C46.3405 76.5112 49.5851 80.5188 52.8551 84.028C52.1602 84.7005 51.4488 85.3557 50.7217 85.9931C46.3764 89.7911 42.0224 92.4858 38.185 93.8411ZM22.0315 63.3206C16.5707 61.4539 12.0609 59.0282 8.96987 56.3812C6.19201 54.0027 4.78996 51.6409 4.78996 49.7248C4.78996 45.6468 10.8693 40.4455 21.0091 36.9104C22.2397 36.4817 23.5276 36.077 24.864 35.6973C26.2656 40.2556 28.1038 45.0217 30.3222 49.8412C28.0749 54.732 26.2105 59.5742 24.7953 64.1863C23.8671 63.9204 22.9455 63.6317 22.0315 63.3206ZM27.4463 26.4604C25.3417 15.7046 26.7394 7.59112 30.257 5.55476C34.0034 3.38584 42.2879 6.47823 51.02 14.2317C51.5894 14.7385 52.1496 15.2555 52.7003 15.7825C49.4465 19.2765 46.2316 23.2543 43.1602 27.5886C37.8932 28.0768 32.8515 28.8607 28.2162 29.9111C27.9307 28.7676 27.6739 27.6168 27.4463 26.4604ZM75.7534 38.3894C74.6586 36.4983 73.5231 34.6309 72.3478 32.7887C75.921 33.2406 79.3445 33.8403 82.5594 34.5735C81.5943 37.6672 80.3913 40.9013 78.9753 44.2172C77.9402 42.2534 76.8661 40.3104 75.7534 38.3894ZM56.0538 19.2021C58.2604 21.5928 60.4704 24.2617 62.6441 27.1577C58.2346 26.9495 53.8176 26.9486 49.408 27.1551C51.5839 24.2858 53.8127 21.6204 56.0538 19.2021ZM36.2278 38.4218C35.1291 40.3273 34.075 42.2582 33.0663 44.2129C31.6735 40.9087 30.4814 37.6597 29.508 34.5223C32.7032 33.8075 36.1106 33.2231 39.661 32.7795C38.4726 34.633 37.3279 36.5146 36.2278 38.4218ZM39.7629 67.0105C36.0948 66.6011 32.6363 66.0468 29.442 65.3512C30.4306 62.1578 31.649 58.8397 33.072 55.4647C34.0847 57.4208 35.1432 59.3529 36.2466 61.2593C37.3814 63.2191 38.5564 65.1386 39.7629 67.0105ZM56.1859 80.5848C53.9182 78.1385 51.6565 75.432 49.4478 72.5212C51.5922 72.6052 53.7782 72.648 56 72.648C58.2827 72.648 60.5391 72.5968 62.7601 72.498C60.5793 75.4613 58.3776 78.1718 56.1859 80.5848ZM79.0203 55.2923C80.5173 58.7045 81.7789 62.0051 82.7807 65.1439C79.5339 65.8849 76.0281 66.4816 72.3342 66.9248C73.5179 65.0483 74.6641 63.1485 75.7722 61.2265C76.8988 59.2728 77.9818 57.2942 79.0203 55.2923ZM71.6282 58.8362C69.9318 61.7831 68.1401 64.674 66.2558 67.5044C62.8425 67.7461 59.4218 67.8662 56 67.8644C52.5148 67.8644 49.1249 67.7559 45.8606 67.5442C43.9272 64.7203 42.1012 61.8243 40.3867 58.8624C38.6803 55.9162 37.0868 52.9062 35.6088 49.839C37.083 46.7711 38.6721 43.7597 40.3727 40.8112L40.3723 40.8116C42.0723 37.8624 43.8836 34.9788 45.8025 32.167C49.1328 31.9151 52.548 31.7838 55.9996 31.7838C59.4669 31.7838 62.8869 31.9164 66.2164 32.1701C68.1159 34.9776 69.9157 37.8513 71.6124 40.7858C73.3187 43.7278 74.9288 46.7245 76.4402 49.7712C74.9443 52.849 73.3393 55.8726 71.6282 58.8362ZM81.4972 5.41215C85.2471 7.57493 86.7056 16.2965 84.3494 27.7338C84.199 28.4635 84.0301 29.2068 83.8464 29.9605C79.1997 28.8879 74.1545 28.0904 68.8722 27.5947C65.7951 23.2127 62.6065 19.2288 59.4056 15.7799C60.2445 14.9712 61.1034 14.1836 61.9814 13.4176C70.2493 6.22275 77.9766 3.38191 81.4972 5.41215ZM56 39.7245C61.5229 39.7245 66.0003 44.2019 66.0003 49.7248C66.0003 55.2477 61.5229 59.7251 56 59.7251C50.4771 59.7251 45.9997 55.2477 45.9997 49.7248C45.9997 44.2019 50.4771 39.7245 56 39.7245Z" fill="#00D8FF"/>
</g>
<defs>
<clipPath id="clip0_544_801">
<rect width="112" height="99.7403" fill="white"/>
</clipPath>
</defs>
</svg>
