<svg width="112" height="112" viewBox="0 0 112 112" fill="none" xmlns="http://www.w3.org/2000/svg">
<g clip-path="url(#clip0_544_819)">
<path d="M85.75 0H26.25C11.7525 0 0 11.7525 0 26.25V85.75C0 100.247 11.7525 112 26.25 112H85.75C100.247 112 112 100.247 112 85.75V26.25C112 11.7525 100.247 0 85.75 0Z" fill="#F0DB4F"/>
<path d="M29.449 93.5952L38.0196 88.4082C39.6734 91.3399 41.1775 93.8205 44.7855 93.8205C48.244 93.8205 50.4245 92.4678 50.4245 87.2055V51.4189H60.9499V87.3543C60.9499 98.2555 54.5597 103.218 45.2366 103.218C36.8169 103.218 31.9296 98.857 29.4485 93.5943M66.6667 92.4673L75.2364 87.5056C77.4926 91.1898 80.4247 93.8962 85.6117 93.8962C89.9732 93.8962 92.7539 91.7157 92.7539 88.7083C92.7539 85.0998 89.897 83.8215 85.0854 81.7171L82.4547 80.5888C74.861 77.3565 69.8237 73.2965 69.8237 64.7259C69.8237 56.8316 75.8384 50.8169 85.2364 50.8169C91.9275 50.8169 96.7391 53.1479 100.197 59.2375L92.0023 64.5001C90.1976 61.2675 88.2437 59.9895 85.2364 59.9895C82.1537 59.9895 80.199 61.9443 80.199 64.5001C80.199 67.6576 82.1537 68.936 86.6644 70.8911L89.2955 72.0186C98.2419 75.8533 103.279 79.7619 103.279 88.5578C103.279 98.0315 95.8365 103.218 85.8375 103.218C76.0642 103.218 69.7489 98.5573 66.6667 92.4673Z" fill="#323330"/>
</g>
<defs>
<clipPath id="clip0_544_819">
<rect width="112" height="112" fill="white"/>
</clipPath>
</defs>
</svg>
