<svg width="16" height="17" viewBox="0 0 16 17" fill="none" xmlns="http://www.w3.org/2000/svg">
<g clip-path="url(#clip0_597_7689)">
<path d="M15.5958 2.75244L8.41555 16.0677C8.26717 16.3427 7.8863 16.3442 7.73592 16.0709L0.413173 2.754C0.249048 2.45559 0.494673 2.09457 0.820798 2.15485L8.0088 3.48705C8.05467 3.49571 8.10167 3.49571 8.14755 3.48705L15.185 2.15692C15.5098 2.09561 15.7569 2.45365 15.5958 2.75244Z" fill="url(#paint0_linear_597_7689)"/>
<path d="M11.4327 0.407465L6.11947 1.48702C6.07706 1.49561 6.03861 1.51857 6.01014 1.55229C5.98168 1.586 5.96482 1.62857 5.96222 1.6733L5.63509 7.39878C5.63334 7.43018 5.63865 7.46157 5.65062 7.49047C5.66258 7.51937 5.68087 7.54498 5.70404 7.56528C5.7272 7.58558 5.75461 7.60001 5.78408 7.60742C5.81355 7.61484 5.84428 7.61504 5.87384 7.608L7.35334 7.25346C7.38521 7.24587 7.4184 7.2467 7.44987 7.25587C7.48135 7.26503 7.5101 7.28225 7.53349 7.30594C7.55688 7.32963 7.57416 7.35903 7.58374 7.39144C7.59333 7.42386 7.59491 7.45825 7.58834 7.49146L7.14872 9.72356C7.142 9.75791 7.144 9.79349 7.15451 9.8268C7.16503 9.86012 7.18371 9.89003 7.20872 9.91361C7.23372 9.9372 7.26421 9.95364 7.29719 9.96134C7.33016 9.96904 7.3645 9.96773 7.39684 9.95754L8.31034 9.66937C8.45197 9.62478 8.58822 9.75389 8.55847 9.90426L7.85972 13.4104C7.81622 13.6297 8.09747 13.7492 8.21472 13.5612L8.29284 13.4358L12.6228 4.47446C12.6956 4.32409 12.5702 4.15298 12.4116 4.18487L10.8885 4.48976C10.8557 4.49636 10.8218 4.49412 10.7901 4.48324C10.7584 4.47236 10.73 4.45321 10.7075 4.42764C10.685 4.40206 10.6692 4.37091 10.6616 4.33718C10.6541 4.30346 10.655 4.26828 10.6643 4.23504L11.6581 0.662187C11.6674 0.628826 11.6683 0.593532 11.6607 0.559706C11.6531 0.525881 11.6372 0.494665 11.6145 0.469068C11.5919 0.443471 11.5632 0.424356 11.5314 0.413566C11.4996 0.402776 11.4656 0.400675 11.4327 0.407465Z" fill="url(#paint1_linear_597_7689)"/>
</g>
<defs>
<linearGradient id="paint0_linear_597_7689" x1="0.234198" y1="1.67906" x2="9.59682" y2="13.9401" gradientUnits="userSpaceOnUse">
<stop stop-color="#41D1FF"/>
<stop offset="1" stop-color="#BD34FE"/>
</linearGradient>
<linearGradient id="paint1_linear_597_7689" x1="7.59647" y1="0.700425" x2="9.33233" y2="12.1829" gradientUnits="userSpaceOnUse">
<stop stop-color="#FFEA83"/>
<stop offset="0.083" stop-color="#FFDD35"/>
<stop offset="1" stop-color="#FFA800"/>
</linearGradient>
<clipPath id="clip0_597_7689">
<rect width="16" height="16.5926" fill="white" transform="translate(0 0.222168)"/>
</clipPath>
</defs>
</svg>
