<svg width="13" height="13" viewBox="0 0 13 13" fill="none" xmlns="http://www.w3.org/2000/svg">
<path d="M6.41514 3.54093C5.84652 3.54093 5.29067 3.70955 4.81788 4.02546C4.34509 4.34136 3.97659 4.79038 3.75899 5.31572C3.54139 5.84105 3.48445 6.41912 3.59539 6.97682C3.70632 7.53451 3.98014 8.04679 4.38221 8.44886C4.78429 8.85094 5.29656 9.12476 5.85426 9.23569C6.41195 9.34662 6.99002 9.28969 7.51536 9.07208C8.0407 8.85448 8.48971 8.48599 8.80562 8.0132C9.12153 7.5404 9.29014 6.98455 9.29014 6.41593C9.28915 5.65374 8.98593 4.92305 8.44698 4.3841C7.90803 3.84514 7.17734 3.54192 6.41514 3.54093ZM6.41514 8.54093C5.99486 8.54093 5.58401 8.4163 5.23456 8.1828C4.8851 7.94931 4.61274 7.61743 4.4519 7.22913C4.29106 6.84084 4.24898 6.41357 4.33098 6.00136C4.41297 5.58915 4.61536 5.21052 4.91254 4.91333C5.20973 4.61614 5.58837 4.41376 6.00058 4.33176C6.41279 4.24977 6.84005 4.29185 7.22835 4.45269C7.61664 4.61352 7.94852 4.88589 8.18202 5.23534C8.41552 5.5848 8.54014 5.99565 8.54014 6.41593C8.54014 6.97952 8.31626 7.52002 7.91775 7.91853C7.51923 8.31705 6.97873 8.54093 6.41514 8.54093ZM11.7901 6.59343C11.7939 6.47531 11.7939 6.35656 11.7901 6.23843L12.7483 5.04093C12.7849 4.99509 12.8102 4.9413 12.8223 4.88387C12.8343 4.82645 12.8328 4.767 12.8176 4.71031C12.6677 4.14535 12.4433 3.60288 12.1501 3.09718C12.121 3.04586 12.0802 3.00213 12.031 2.96955C11.9818 2.93697 11.9256 2.91646 11.867 2.90968L10.3389 2.74031C10.2585 2.65406 10.1751 2.57072 10.0889 2.49031L9.91889 0.961556C9.91212 0.90294 9.89161 0.84675 9.85903 0.797554C9.82645 0.748357 9.78272 0.707544 9.73139 0.678431C9.22632 0.386154 8.68472 0.16212 8.12077 0.0121811C8.06393 -0.00267055 8.0044 -0.00396038 7.94697 0.0084156C7.88954 0.0207916 7.83582 0.0464871 7.79014 0.083431L6.59014 1.04406C6.47184 1.04031 6.35345 1.04031 6.23514 1.04406L5.04014 0.082806C4.9943 0.0461833 4.94051 0.020828 4.88309 0.00877895C4.82566 -0.0032701 4.76621 -0.00167673 4.70952 0.013431C4.14456 0.163338 3.60209 0.387811 3.09639 0.680931C3.04507 0.710044 3.00134 0.750857 2.96876 0.800054C2.93618 0.84925 2.91567 0.90544 2.90889 0.964056L2.74202 2.49218C2.65577 2.57301 2.57244 2.65635 2.49202 2.74218L0.962644 2.91593C0.904028 2.92271 0.847838 2.94322 0.798642 2.9758C0.749446 3.00838 0.708632 3.05211 0.679519 3.10343C0.387243 3.60851 0.163208 4.1501 0.0132694 4.71406C-0.00122361 4.7702 -0.00250161 4.82893 0.0095358 4.88565C0.0215732 4.94237 0.0465982 4.99552 0.0826445 5.04093L1.04327 6.24093C1.03952 6.35923 1.03952 6.47763 1.04327 6.59593L0.0820195 7.79406C0.0453967 7.8399 0.0200414 7.89369 0.0079924 7.95111C-0.00405665 8.00854 -0.00246328 8.06799 0.0126444 8.12468C0.162813 8.68856 0.387279 9.22997 0.680144 9.73468C0.709257 9.78601 0.750071 9.82973 0.799267 9.86232C0.848463 9.8949 0.904653 9.91541 0.963269 9.92218L2.49139 10.0916C2.57223 10.1778 2.65556 10.2611 2.74139 10.3416L2.91514 11.8684C2.92192 11.927 2.94243 11.9832 2.97501 12.0324C3.00759 12.0816 3.05132 12.1224 3.10264 12.1516C3.60772 12.4438 4.14931 12.6679 4.71327 12.8178C4.76996 12.8329 4.82941 12.8345 4.88684 12.8225C4.94426 12.8104 4.99805 12.7851 5.04389 12.7484L6.23764 11.7909C6.35577 11.7947 6.47452 11.7947 6.59264 11.7909L7.79327 12.7522C7.85983 12.8053 7.94249 12.8342 8.02764 12.8341C8.06013 12.8339 8.09246 12.8297 8.12389 12.8216C8.68777 12.6714 9.22918 12.4469 9.73389 12.1541C9.78522 12.1249 9.82895 12.0841 9.86153 12.0349C9.89411 11.9857 9.91462 11.9295 9.92139 11.8709L10.0908 10.3428C10.177 10.2624 10.2604 10.1791 10.3408 10.0928L11.8695 9.92281C11.9281 9.91603 11.9843 9.89552 12.0335 9.86294C12.0827 9.83036 12.1235 9.78663 12.1526 9.73531C12.445 9.23028 12.6691 8.68867 12.8189 8.12468C12.834 8.06799 12.8356 8.00854 12.8235 7.95111C12.8115 7.89369 12.7861 7.8399 12.7495 7.79406L11.7901 6.59343ZM11.5964 9.19531L10.1189 9.35968C10.0266 9.37032 9.94149 9.41487 9.88014 9.48468C9.75662 9.62384 9.62492 9.75553 9.48577 9.87906C9.41596 9.9404 9.37141 10.0255 9.36077 10.1178L9.19639 11.5947C8.85047 11.7792 8.48701 11.9286 8.11139 12.0409L6.95077 11.1122C6.88421 11.0591 6.80155 11.0302 6.71639 11.0303H6.69389C6.50821 11.0409 6.32208 11.0409 6.13639 11.0303C6.04366 11.0246 5.95212 11.0536 5.87952 11.1116L4.71952 12.0409C4.34425 11.928 3.98119 11.7779 3.63577 11.5928L3.47139 10.1166C3.46075 10.0242 3.41621 9.93915 3.34639 9.87781C3.20724 9.75428 3.07555 9.62259 2.95202 9.48343C2.89067 9.41362 2.80559 9.36907 2.71327 9.35843L1.23639 9.19406C1.05211 8.84913 0.902626 8.48672 0.790144 8.11218L1.71889 6.95156C1.77686 6.87895 1.80582 6.78742 1.80014 6.69468C1.78952 6.509 1.78952 6.32286 1.80014 6.13718C1.80582 6.04445 1.77686 5.95291 1.71889 5.88031L0.790144 4.72031C0.903051 4.34503 1.05317 3.98198 1.23827 3.63656L2.71452 3.47218C2.80684 3.46154 2.89192 3.41699 2.95327 3.34718C3.0768 3.20803 3.20849 3.07633 3.34764 2.95281C3.41746 2.89146 3.462 2.80638 3.47264 2.71406L3.63702 1.23718C3.98194 1.0529 4.34435 0.903412 4.71889 0.790931L5.87952 1.71968C5.95212 1.77765 6.04366 1.8066 6.13639 1.80093C6.32208 1.79031 6.50821 1.79031 6.69389 1.80093C6.78663 1.8066 6.87817 1.77765 6.95077 1.71968L8.11077 0.790931C8.48604 0.903837 8.8491 1.05396 9.19452 1.23906L9.35889 2.71656C9.36954 2.80888 9.41408 2.89396 9.48389 2.95531C9.62305 3.07884 9.75474 3.21053 9.87827 3.34968C9.93961 3.41949 10.0247 3.46404 10.117 3.47468L11.5939 3.63906C11.7781 3.98358 11.9276 4.34557 12.0401 4.71968L11.1114 5.88031C11.0534 5.95291 11.0245 6.04445 11.0301 6.13718C11.0408 6.32286 11.0408 6.509 11.0301 6.69468C11.0245 6.78742 11.0534 6.87895 11.1114 6.95156L12.0401 8.11156C11.9276 8.48678 11.7779 8.84983 11.5933 9.19531H11.5964Z" fill="#FEFEFE"/>
</svg>
