<svg width="19" height="19" viewBox="0 0 19 19" fill="none" xmlns="http://www.w3.org/2000/svg">
<path fill-rule="evenodd" clip-rule="evenodd" d="M9.5 0C4.25204 0 0 4.35941 0 9.73989C0 14.0417 2.72175 17.6941 6.49721 18.9822C6.97379 19.0715 7.14637 18.7728 7.14637 18.5131C7.14637 18.281 7.13767 17.669 7.1345 16.8573C4.49033 17.4441 3.93379 15.5514 3.93379 15.5514C3.50075 14.4256 2.87929 14.1245 2.87929 14.1245C2.01637 13.5222 2.94421 13.5352 2.94421 13.5352C3.89658 13.605 4.39771 14.5368 4.39771 14.5368C5.24479 16.027 6.62071 15.596 7.16221 15.3484C7.24929 14.7178 7.49629 14.2892 7.76546 14.0457C5.65646 13.8014 3.439 12.9646 3.439 9.2326C3.439 8.1669 3.81029 7.29842 4.41592 6.61663C4.32012 6.37313 3.99237 5.38048 4.50854 4.03962C4.50854 4.03962 5.30654 3.77989 7.12183 5.03796C7.89702 4.82198 8.6967 4.71227 9.5 4.71167C10.3075 4.71492 11.1205 4.82206 11.8782 5.03796C13.6935 3.77989 14.4883 4.03962 14.4883 4.03962C15.0076 5.38048 14.683 6.37313 14.5833 6.61663C15.1929 7.29842 15.5578 8.1669 15.5578 9.2326C15.5578 12.9743 13.338 13.7949 11.2227 14.0392C11.5631 14.3371 11.8655 14.9329 11.8655 15.8403C11.8655 17.143 11.8568 18.1925 11.8568 18.5131C11.8568 18.7728 12.0262 19.0772 12.5091 18.9822C16.2814 17.6917 19 14.0417 19 9.73989C19 4.35941 14.748 0 9.5 0Z" fill="#FEFEFE"/>
</svg>
