<svg width="16" height="15" viewBox="0 0 16 15" fill="none" xmlns="http://www.w3.org/2000/svg">
<g clip-path="url(#clip0_597_7687)">
<path d="M13.1549 5.00658C12.9846 4.946 12.8129 4.88988 12.6399 4.83827C12.669 4.71513 12.6957 4.59349 12.7195 4.47398C13.1093 2.51152 12.8545 0.930513 11.984 0.409972C11.1494 -0.0890537 9.78446 0.431294 8.40597 1.67542C8.27011 1.79826 8.13727 1.92463 8.00757 2.05442C7.92074 1.96811 7.83238 1.88348 7.74253 1.80057C6.2978 0.470308 4.84969 -0.0903499 3.98015 0.431683C3.14629 0.932263 2.89938 2.41852 3.25035 4.27839C3.28526 4.46259 3.32469 4.64584 3.36859 4.82797C3.16361 4.88837 2.96581 4.95266 2.77652 5.0211C1.08268 5.63354 0.000976562 6.59328 0.000976562 7.58881C0.000976562 8.61699 1.16224 9.64829 2.92644 10.2736C3.06947 10.3241 3.21369 10.3709 3.35896 10.4139C3.31178 10.6101 3.26989 10.8076 3.23335 11.0062C2.89876 12.8338 3.16004 14.2849 3.99165 14.7823C4.85056 15.296 6.29217 14.768 7.69585 13.4955C7.80967 13.3921 7.92099 13.2857 8.02969 13.1765C8.17015 13.317 8.31436 13.4535 8.46215 13.5857C9.82189 14.799 11.1648 15.289 11.9956 14.7902C12.8537 14.275 13.1326 12.7161 12.7705 10.8195C12.742 10.6709 12.71 10.5231 12.6746 10.3761C12.7758 10.345 12.8752 10.313 12.972 10.2797C14.8061 9.64952 15.9994 8.63073 15.9994 7.58881C15.9994 6.58966 14.8828 5.62343 13.1549 5.00658ZM12.7571 9.60694C12.6696 9.63695 12.5799 9.66592 12.4884 9.69411C12.2859 9.02937 12.0127 8.32257 11.6783 7.59224C11.9974 6.87935 12.2601 6.18156 12.4569 5.52116C12.6206 5.57028 12.7794 5.62206 12.9325 5.6767C14.4129 6.20528 15.316 6.98667 15.316 7.58881C15.316 8.23015 14.3407 9.06275 12.7571 9.60694ZM12.1 10.9572C12.2602 11.7958 12.283 12.554 12.1769 13.1468C12.0817 13.6795 11.8901 14.0346 11.6531 14.1769C11.1489 14.4795 10.0707 14.0861 8.90792 13.0484C8.77045 12.9255 8.63631 12.7986 8.50565 12.668C8.95648 12.1567 9.40699 11.5623 9.8467 10.9022C10.6201 10.831 11.3508 10.7147 12.0134 10.5558C12.0453 10.6889 12.0742 10.8227 12.1 10.9572ZM5.45519 14.1245C4.96262 14.3049 4.57028 14.3101 4.33312 14.1683C3.82848 13.8665 3.61869 12.7013 3.90484 11.1384C3.93886 10.9537 3.97781 10.77 4.02165 10.5876C4.67696 10.7379 5.40232 10.846 6.17756 10.9112C6.62027 11.5572 7.08378 12.1509 7.55093 12.6708C7.45165 12.7704 7.35003 12.8675 7.24614 12.9619C6.62539 13.5246 6.00339 13.9238 5.45519 14.1245ZM3.14754 9.60299C2.36743 9.32645 1.72318 8.96709 1.2816 8.57493C0.884765 8.22257 0.684472 7.87267 0.684472 7.58881C0.684472 6.98466 1.55295 6.21409 3.0015 5.69037C3.17729 5.62686 3.36127 5.56691 3.55219 5.51066C3.75242 6.18596 4.01502 6.89205 4.33193 7.60605C4.0109 8.33061 3.74455 9.04797 3.54238 9.73125C3.40978 9.69186 3.27812 9.64909 3.14754 9.60299ZM3.92109 4.14223C3.62044 2.54878 3.8201 1.34678 4.32262 1.04509C4.85781 0.723774 6.04132 1.18191 7.28876 2.33057C7.37011 2.40564 7.45013 2.48224 7.5288 2.56032C7.06397 3.07794 6.60471 3.66725 6.16594 4.30937C5.41351 4.3817 4.69327 4.49783 4.03108 4.65344C3.99028 4.48404 3.95361 4.31354 3.92109 4.14223ZM10.8221 5.90949C10.6657 5.62932 10.5035 5.35267 10.3356 5.07975C10.846 5.14669 11.3351 5.23555 11.7944 5.34417C11.6565 5.80249 11.4847 6.28162 11.2824 6.77287C11.1345 6.48193 10.9811 6.19408 10.8221 5.90949ZM8.00788 3.06693C8.3231 3.4211 8.63882 3.8165 8.94935 4.24553C8.31941 4.21468 7.68843 4.21455 7.05847 4.24514C7.36932 3.82006 7.68773 3.42519 8.00788 3.06693ZM5.1756 5.91429C5.01863 6.19658 4.86804 6.48264 4.72395 6.77222C4.52497 6.28272 4.35468 5.80139 4.21563 5.33658C4.67208 5.23069 5.15885 5.1441 5.66605 5.07839C5.49628 5.35298 5.33275 5.63173 5.1756 5.91429ZM5.68061 10.1497C5.1566 10.089 4.66252 10.0069 4.20619 9.90383C4.34743 9.43073 4.52147 8.93916 4.72476 8.43916C4.86943 8.72896 5.02064 9.01519 5.17828 9.29761C5.34039 9.58796 5.50825 9.87234 5.68061 10.1497ZM8.02676 12.1607C7.70279 11.7982 7.37969 11.3973 7.06416 10.966C7.37051 10.9785 7.68279 10.9848 8.0002 10.9848C8.32629 10.9848 8.64863 10.9773 8.96591 10.9626C8.65438 11.4016 8.33985 11.8032 8.02676 12.1607ZM11.2888 8.41362C11.5027 8.91913 11.6829 9.40811 11.826 9.87311C11.3622 9.9829 10.8614 10.0713 10.3337 10.1369C10.5027 9.85895 10.6665 9.5775 10.8248 9.29275C10.9857 9.00332 11.1404 8.7102 11.2888 8.41362ZM10.2328 8.93864C9.99045 9.37521 9.73449 9.8035 9.4653 10.2228C8.9777 10.2586 8.48902 10.2764 8.0002 10.2762C7.50231 10.2762 7.01804 10.2601 6.55171 10.2287C6.2755 9.81037 6.01465 9.38133 5.76973 8.94253C5.52595 8.50605 5.29831 8.06012 5.08717 7.60572C5.29777 7.15121 5.52478 6.70508 5.76773 6.26827L5.76766 6.26833C6.01051 5.83141 6.26928 5.40421 6.5434 4.98765C7.01917 4.95032 7.50706 4.93088 8.00013 4.93088C8.49546 4.93088 8.98404 4.95052 9.45968 4.98811C9.73103 5.40404 9.98814 5.82977 10.2305 6.26451C10.4743 6.70036 10.7043 7.14432 10.9202 7.59568C10.7065 8.05165 10.4772 8.49959 10.2328 8.93864ZM11.6427 1.02397C12.1783 1.34438 12.3867 2.63647 12.0501 4.33088C12.0286 4.43899 12.0045 4.5491 11.9782 4.66076C11.3144 4.50185 10.5937 4.3837 9.83908 4.31028C9.3995 3.66109 8.94398 3.07088 8.48671 2.55993C8.60655 2.44013 8.72924 2.32344 8.85467 2.20996C10.0358 1.14406 11.1397 0.723191 11.6427 1.02397ZM8.0002 6.10729C8.78918 6.10729 9.42881 6.7706 9.42881 7.58881C9.42881 8.40701 8.78918 9.07033 8.0002 9.07033C7.21121 9.07033 6.57158 8.40701 6.57158 7.58881C6.57158 6.7706 7.21121 6.10729 8.0002 6.10729Z" fill="#00D8FF"/>
</g>
<defs>
<clipPath id="clip0_597_7687">
<rect width="16" height="14.7763" fill="white" transform="translate(0 0.222168)"/>
</clipPath>
</defs>
</svg>
