<svg width="16" height="19" viewBox="0 0 16 19" fill="none" xmlns="http://www.w3.org/2000/svg">
<g clip-path="url(#clip0_597_7719)">
<path d="M8.00003 0.00292969L15.9986 4.52743V13.5794L8.00003 18.1039L0.00146484 13.5794V4.52743L8.00003 0.00292969Z" fill="white"/>
<path d="M14.5707 13.2656L8.26546 16.8362V14.0594L12.1953 11.8953L14.5707 13.2656ZM15.0023 12.8762V5.41494L12.6964 6.74595V11.5451L15.0023 12.8762ZM1.40475 13.2655L7.71006 16.8333V14.0564L3.7802 11.8953L1.40475 13.2655ZM0.973145 12.8762V5.41494L3.27917 6.74595V11.5451L0.973145 12.8762ZM1.24185 4.93203L7.71006 1.27374V3.96014L3.56593 6.23892L3.53269 6.25704L1.24185 4.93203ZM14.7307 4.93203L8.26546 1.27368V3.96008L12.4066 6.24185L12.4398 6.25998L14.7307 4.93203Z" fill="#8ED6FB"/>
<path d="M7.71003 13.4255L3.83447 11.2915V7.06891L7.71003 9.30551V13.4255ZM8.26543 13.4255L12.141 11.2946V7.06891L8.26543 9.30551V13.4255ZM4.09405 6.57993L7.98773 4.43994L11.8783 6.57993L7.98773 8.82559L4.09405 6.57993Z" fill="#1C78C0"/>
</g>
<defs>
<clipPath id="clip0_597_7719">
<rect width="16" height="18.1218" fill="white"/>
</clipPath>
</defs>
</svg>
