<svg width="16" height="17" viewBox="0 0 16 17" fill="none" xmlns="http://www.w3.org/2000/svg">
<g clip-path="url(#clip0_597_7692)">
<path d="M12.25 0.222168H3.75C1.67893 0.222168 0 1.96328 0 4.11106V12.9259C0 15.0736 1.67893 16.8148 3.75 16.8148H12.25C14.3211 16.8148 16 15.0736 16 12.9259V4.11106C16 1.96328 14.3211 0.222168 12.25 0.222168Z" fill="#F0DB4F"/>
<path d="M4.20709 14.088L5.43147 13.3196C5.66772 13.7539 5.88259 14.1214 6.39803 14.1214C6.89209 14.1214 7.20359 13.921 7.20359 13.1414V7.83967H8.70722V13.1634C8.70722 14.7784 7.79434 15.5136 6.46247 15.5136C5.25966 15.5136 4.56147 14.8675 4.20703 14.0879M9.52391 13.9209L10.7482 13.1859C11.0705 13.7317 11.4893 14.1326 12.2303 14.1326C12.8534 14.1326 13.2507 13.8096 13.2507 13.364C13.2507 12.8294 12.8425 12.6401 12.1552 12.3283L11.7793 12.1611C10.6945 11.6823 9.97491 11.0808 9.97491 9.81108C9.97491 8.64156 10.8342 7.75049 12.1767 7.75049C13.1326 7.75049 13.82 8.09582 14.314 8.99798L13.1433 9.77764C12.8855 9.29872 12.6063 9.1094 12.1767 9.1094C11.7363 9.1094 11.4571 9.39899 11.4571 9.77764C11.4571 10.2454 11.7363 10.4348 12.3807 10.7245L12.7566 10.8915C14.0347 11.4596 14.7543 12.0386 14.7543 13.3417C14.7543 14.7452 13.691 15.5137 12.2626 15.5137C10.8664 15.5137 9.96422 14.8231 9.52391 13.9209Z" fill="#323330"/>
</g>
<defs>
<clipPath id="clip0_597_7692">
<rect width="16" height="16.5926" fill="white" transform="translate(0 0.222168)"/>
</clipPath>
</defs>
</svg>
