<svg width="16" height="17" viewBox="0 0 16 17" fill="none" xmlns="http://www.w3.org/2000/svg">
<path d="M2.95112 14.3265L1.82812 1.25928H14.1721L13.0476 14.3244L7.99262 15.7778L2.95112 14.3265Z" fill="#1572B6"/>
<path d="M8 14.6671L12.085 13.4926L13.046 2.32788H8V14.6671Z" fill="#33A9DC"/>
<path d="M8 7.06197H10.045L10.186 5.42086H8V3.81812H11.875L11.838 4.24797L11.4585 8.66471H8V7.06197Z" fill="white"/>
<path d="M8.00962 11.2241L8.00262 11.2262L6.28162 10.744L6.17162 9.46582H4.62012L4.83662 11.9822L8.00212 12.8937L8.00962 12.8917V11.2241Z" fill="#EBEBEB"/>
<path d="M9.91341 8.59668L9.72741 10.7428L8.00391 11.2251V12.8926L11.1719 11.9821L11.1954 11.7114L11.4639 8.59668H9.91341Z" fill="white"/>
<path d="M8.00529 3.81812V5.42086H4.27229L4.24129 5.06049L4.17079 4.24797L4.13379 3.81812H8.00529ZM7.99979 7.06197V8.66471H6.30029L6.26929 8.30434L6.19929 7.49182L6.16229 7.06197H7.99979Z" fill="#EBEBEB"/>
</svg>
