<svg width="120" height="120" viewBox="0 0 120 120" fill="none" xmlns="http://www.w3.org/2000/svg">
<path d="M120 92.9406C118.253 93.6001 116.326 93.598 114.581 92.935C112.836 92.2719 111.393 90.9935 110.525 89.3406L93.2751 65.4856L90.7751 62.1506L70.7601 89.3706C69.945 90.9549 68.5808 92.188 66.9226 92.8395C65.2643 93.4911 63.4256 93.5163 61.7501 92.9106L87.5401 58.3106L63.5501 27.0556C65.275 26.434 67.1615 26.4257 68.8919 27.0323C70.6222 27.6388 72.0907 28.823 73.0501 30.3856L90.9301 54.5356L108.91 30.4856C109.731 28.9295 111.096 27.7295 112.744 27.1137C114.393 26.4979 116.21 26.5093 117.85 27.1456L108.54 39.5006L95.9301 55.9156C95.5799 56.228 95.2997 56.6109 95.1078 57.0391C94.9159 57.4674 94.8167 57.9313 94.8167 58.4006C94.8167 58.8699 94.9159 59.3338 95.1078 59.7621C95.2997 60.1904 95.5799 60.5732 95.9301 60.8856L119.95 92.9456L120 92.9406ZM0.0100655 57.8806L2.11007 47.5056C7.88007 26.9906 31.4001 18.4556 47.5801 31.1556C57.0551 38.6006 59.4201 49.1406 58.9551 61.0206H5.58007C4.71507 82.2356 20.0251 95.0456 39.6001 88.5006C42.7729 87.3576 45.6129 85.4458 47.8658 82.9363C50.1188 80.4268 51.7145 77.3979 52.5101 74.1206C53.5451 70.7906 55.2501 70.2206 58.3801 71.1806C57.8574 75.2422 56.4211 79.1325 54.179 82.5593C51.9369 85.986 48.9474 88.8601 45.4351 90.9656C39.6326 94.1413 32.9743 95.4002 26.4129 94.5623C19.8515 93.7244 13.7233 90.8326 8.90507 86.3006C4.14178 80.9366 1.26225 74.1626 0.705066 67.0106C0.705066 65.8356 0.305066 64.7356 0.0350655 63.6806C0.0106782 61.749 -0.000988761 59.8173 6.55324e-05 57.8856L0.0100655 57.8806ZM5.64507 56.4506H53.9151C53.6151 41.0706 43.9101 30.1606 30.9651 30.0606C16.5551 29.8606 6.24507 40.5306 5.61007 56.3806L5.64507 56.4506Z" fill="#FEFEFE"/>
</svg>
